<svg viewBox="0 0 168 40" height="40" width="168" xmlns="http://www.w3.org/2000/svg" data-sanitized-data-name="图层 1" data-name="图层 1" id="图层_1"><defs><style>.cls-1{fill:#0b1a47;}</style></defs><path d="M160.82,28.4l7-7a.55.55,0,0,0,.15-.45V17.86c0-.15,0-.46-.15-.46l-7-7a.56.56,0,0,0-.46-.15h-14.2c-.15,0-.46,0-.46.15l-7,7a.56.56,0,0,0-.16.46V32.07c0,.15,0,.45.16.45l7,7a.57.57,0,0,0,.46.15h14.2c.16,0,.46,0,.46-.15l6-6a.71.71,0,0,0-.46-1.22H146.47a.72.72,0,0,1-.77-.76V29.32a.73.73,0,0,1,.77-.77h13.74C160.52,28.71,160.67,28.55,160.82,28.4ZM146.47,17.56h13.28a.72.72,0,0,1,.77.76v2.29a.72.72,0,0,1-.77.76H149.67c-.15,0-.46,0-.46.16l-2.29,2.29a.71.71,0,0,1-1.22-.46V18.47a.85.85,0,0,1,.77-.91Z" class="cls-1"></path><path d="M133.18,17.71l-6.72,6.72a.73.73,0,0,0,0,1.07l6.72,6.72a.56.56,0,0,1,.15.46v6.41a.71.71,0,0,1-.76.76h-5.81a.72.72,0,0,1-.76-.76V29.47a.72.72,0,0,0-.76-.76H112a.71.71,0,0,0-.76.76v9.62a.72.72,0,0,1-.77.76h-6a.72.72,0,0,1-.77-.76V.91a.72.72,0,0,1,.77-.76h6a.72.72,0,0,1,.77.76V20.46a.71.71,0,0,0,.76.76h13.29a.72.72,0,0,0,.76-.76V10.84a.73.73,0,0,1,.76-.77h6a.72.72,0,0,1,.76.77v6.41c0,.15-.15.31-.3.46Z" class="cls-1"></path><path d="M98.81,17.86V39.09a.71.71,0,0,1-.76.76h-6a.72.72,0,0,1-.76-.76V18.32a.71.71,0,0,0-.76-.76H77.28a.71.71,0,0,0-.76.76V39.09a.72.72,0,0,1-.77.76h-6a.72.72,0,0,1-.77-.76V10.84a.73.73,0,0,1,.77-.77h6a.73.73,0,0,1,.77.77v1.83a.42.42,0,0,0,.76.3l2.6-2.59a.55.55,0,0,1,.45-.15H90.87c.16,0,.46,0,.46.15l7,7a.4.4,0,0,1,.45.46Z" class="cls-1"></path><path d="M64.3,17.86V39.09a.72.72,0,0,1-.77.76h-6a.72.72,0,0,1-.77-.76V18.32a.71.71,0,0,0-.76-.76H42.76a.72.72,0,0,0-.76.76V39.09a.72.72,0,0,1-.76.76h-6a.71.71,0,0,1-.76-.76V10.84a.72.72,0,0,1,.76-.77h6a.73.73,0,0,1,.76.77v1.83a.42.42,0,0,0,.76.3l2.6-2.59a.57.57,0,0,1,.46-.15H56.51c.15,0,.46,0,.46.15l7,7c.16,0,.16.16.31.46Z" class="cls-1"></path><path d="M21.84,10.07h-14c-.15,0-.46,0-.46.16l-6,5.95a.71.71,0,0,0,.46,1.22h16.5c.15,0,.46,0,.46.16l2.29,2.29a.71.71,0,0,1-.46,1.22H7.79c-.15,0-.46,0-.46.15l-7,7A.83.83,0,0,0,0,29v3.06c0,.15,0,.45.15.45l7,7a.56.56,0,0,0,.46.15H17c.16,0,.46,0,.46-.15L20.92,36a.71.71,0,0,1,1.23.45v2.45a.71.71,0,0,0,.76.76h6a.72.72,0,0,0,.76-.76V17.86c0-.15,0-.46-.15-.46l-7-7a.79.79,0,0,0-.61-.31Zm-.31,22.3H8.09a.72.72,0,0,1-.76-.76V29.32a.73.73,0,0,1,.76-.77H21.38a.73.73,0,0,1,.77.77v2.29A.7.7,0,0,1,21.53,32.37Z" class="cls-1"></path></svg>