<svg width="264" height="63" viewBox="0 0 264 63" fill="none" xmlns="http://www.w3.org/2000/svg">
<path d="M89.9522 36.4112C89.9522 38.0269 89.6329 39.6413 89.0914 41.0725C88.3747 42.9765 87.3151 44.626 85.9144 45.9636C70.5675 46.0328 55.5152 47.2675 40.828 49.5862V41.0029H74.686C75.7931 41.0029 77.2156 40.8534 78.2194 40.1252C79.0873 39.4692 79.7007 38.5108 79.9364 37.4495C80.0183 37.115 80.0532 36.758 80.0532 36.4108C80.0532 34.7481 79.1465 33.2947 77.6648 32.4887C76.9681 32.1193 76.1935 31.8874 75.4162 31.7042C75.4049 31.6931 75.4049 31.6931 75.3944 31.6931C75.1457 31.635 74.8995 31.5769 74.6516 31.5192C72.227 30.9773 69.7781 30.4126 67.3426 29.8566C66.6129 29.6844 65.8962 29.5234 65.166 29.3611C64.7416 29.268 51.5026 26.2591 50.6905 26.0729C49.3822 25.785 46.772 24.769 45.4275 23.7768C42.7572 21.8746 40.8393 19.0028 40.1801 15.6902C40.0263 14.883 39.9453 14.0403 39.9453 13.1755C39.9453 11.5593 40.262 9.94535 40.8036 8.51415C42.711 3.4962 46.9345 0.138379 53.7028 0H85.9501V8.57224H55.2098C54.0914 8.57224 52.6689 8.72172 51.6786 9.44864C50.7977 10.1059 50.1842 11.0639 49.9612 12.1124C49.8775 12.4597 49.8444 12.8167 49.8444 13.1755C49.8444 14.8253 50.7367 16.2788 52.2328 17.0877C53.0318 17.5122 53.962 17.7548 54.8556 17.9636L64.7185 20.2119H64.7416C65.3533 20.3631 78.405 23.3164 79.2053 23.5014C80.5124 23.7892 83.1125 24.8155 84.4657 25.8077C87.1373 27.7125 89.0452 30.5848 89.7043 33.8841C89.8686 34.6913 89.9522 35.545 89.9522 36.4103V36.4112Z" fill="#0061AF"/>
<path d="M134.475 0.000488281V8.57273H116.996V47.4525C113.819 47.1292 110.642 46.8657 107.442 46.644V8.57273H89.9629V0.000488281H134.475Z" fill="#0061AF"/>
<path d="M87.2097 57.6852C46.1934 57.6852 0 63 0 63C27.5171 54.473 56.8131 49.8766 87.2097 49.8766C117.606 49.8766 146.9 54.473 174.418 63C174.418 63 128.226 57.6852 87.2097 57.6852Z" fill="#8DC63F"/>
<path fill-rule="evenodd" clip-rule="evenodd" d="M156.958 6.93396V6.30015C156.958 2.12871 155.258 0.000488281 152.232 0.000488281C149.469 0.000488281 147.528 1.95616 147.528 5.38018C147.528 7.62415 148.324 9.37823 149.909 10.7266L152.607 13.0312C153.733 13.978 154.261 14.7853 154.261 16.1357C154.261 17.4315 153.622 18.4673 152.475 18.4673C151.326 18.4673 150.266 17.7181 150.266 14.8139V14.0079H147.371V14.8139C147.371 19.0703 149.093 21.6316 152.475 21.6316C155.655 21.6316 157.376 19.4427 157.376 15.7902C157.376 12.6857 156.336 11.418 154.657 9.95352L151.569 7.27905C150.928 6.73151 150.549 6.15408 150.549 4.91807C150.549 3.76918 151.302 3.16398 152.163 3.16398C153.353 3.16398 154.062 4.17022 154.062 6.70375V6.93396H156.957H156.958ZM162.233 12.6857H164.884C167.469 12.6857 169.124 9.86768 169.124 6.44408C169.124 3.10761 167.51 0.374197 164.926 0.374197H159.208V21.1404H164.924L176.223 10.8436L176.835 10.1154L162.233 18.7056V12.6852L162.233 12.6857ZM162.233 3.45356H163.759C165.282 3.45356 166.032 4.54436 166.032 6.50088C166.032 8.48773 165.281 9.60843 163.759 9.60843H162.233V3.45398V3.45356ZM169.232 21.1404H172.478C172.998 18.1879 173.454 15.6027 173.804 12.6588L175.262 2.99229L176.248 10.8257L177.147 10.0496L176.363 11.7546L176.478 12.6592H176.475L176.896 16.0473L177.603 21.1404H180.871L177.336 0.374197H173.277L169.233 21.1404H169.232ZM191.757 7.13426V6.09813C191.757 2.27221 190.08 0.000488281 186.989 0.000488281C183.698 0.000488281 182.02 2.27221 182.02 7.13426V14.6981C182.02 18.3801 182.968 21.6316 186.944 21.6316C190.719 21.6316 191.757 18.4079 191.757 14.6413V13.7495H188.731V14.8711C188.731 17.5443 188.136 18.4673 186.921 18.4673C185.642 18.4673 185.11 17.5768 185.11 14.8711V6.67215C185.11 4.05448 185.663 3.16398 186.944 3.16398C188.225 3.16398 188.731 4.05448 188.731 6.67215V7.13384H191.757V7.13426ZM193.857 0.374197V21.1404H202.381V17.9778H196.879V11.5338H201.893V8.37199H196.879V3.53684H202.381V0.374625H193.857V0.374197ZM154.301 28.8909H158.054V25.73H147.518V28.8909H151.274V46.495H154.3V28.8909H154.301ZM159.555 25.73V46.4954H168.081V43.3328H162.58V36.8887H167.595V33.7248H162.58V28.8909H168.081V25.73H159.555ZM179.606 32.4888V31.4514C179.606 27.6272 177.928 25.3546 174.835 25.3546C171.545 25.3546 169.867 27.6297 169.867 32.4884V40.051C169.867 43.7329 170.818 46.9844 174.792 46.9844C178.57 46.9844 179.607 43.7641 179.607 39.9946V39.1024H176.581V40.2231C176.581 42.8975 175.986 43.8205 174.768 43.8205C173.488 43.8205 172.96 42.93 172.96 40.2231V32.0254C172.96 29.4077 173.51 28.5198 174.793 28.5198C176.072 28.5198 176.581 29.4116 176.581 32.0254V32.4884H179.607L179.606 32.4888ZM184.73 25.73H181.703V46.4954H184.73V36.8887H188.725V46.4954H191.751V25.73H188.725V33.7248H184.73V25.73ZM193.959 25.73V46.4954H196.787V39.1314C196.787 37.0327 196.742 33.4357 196.408 31.4245H196.431L200.849 46.4954H204.116V25.73H201.291V33.091C201.291 35.4507 201.331 38.4976 201.667 40.8304H201.642L197.229 25.73H193.959ZM206.215 32.4589V39.995C206.215 45.2278 208.377 46.9849 211.402 46.9849C214.473 46.9849 216.526 45.2872 216.526 39.995V32.4589C216.526 27.1663 214.473 25.3546 211.402 25.3546C208.378 25.3546 206.215 27.227 206.215 32.4589ZM211.402 28.5202C212.709 28.5202 213.435 29.8425 213.435 32.0583V40.4849C213.435 42.6695 212.709 43.8214 211.402 43.8214C209.968 43.8214 209.305 42.6417 209.305 40.4849V31.9976C209.305 29.7849 209.968 28.5207 211.402 28.5207V28.5202ZM221.652 25.73H218.626V46.4954H227.149V43.3328H221.652V25.73ZM228.65 32.4589V39.995C228.65 45.2278 230.814 46.9849 233.84 46.9849C236.911 46.9849 238.964 45.2872 238.964 39.995V32.4589C238.964 27.1663 236.911 25.3546 233.84 25.3546C230.814 25.3546 228.65 27.227 228.65 32.4589ZM233.84 28.5202C235.143 28.5202 235.868 29.8425 235.868 32.0583V40.4849C235.868 42.6695 235.143 43.8214 233.84 43.8214C232.406 43.8214 231.743 42.6417 231.743 40.4849V31.9976C231.743 29.7849 232.406 28.5207 233.84 28.5207V28.5202ZM246.205 35.3661V38.4425H248.216V39.8229C248.216 42.6127 247.507 43.8209 246.184 43.8209C244.594 43.8209 244.04 42.2966 244.04 39.0481V32.4589C244.04 29.6969 244.659 28.5202 246.206 28.5202C247.575 28.5202 248.217 29.6409 248.217 32.4589H251.241V31.8857C251.241 28.5202 249.938 25.3546 246.206 25.3546C242.738 25.3546 240.952 27.8582 240.952 32.7169V39.5051C240.952 44.7409 243.049 46.9849 245.479 46.9849C247.378 46.9849 248.217 45.9492 248.879 44.1665V46.495H251.241V35.3657H246.206L246.205 35.3661ZM252.477 25.73L256.671 37.5776V46.4954H259.695V37.5776L264.001 25.73H260.58L258.172 33.7248L256.053 25.73H252.477Z" fill="#0061AF"/>
</svg>